<?xml version="1.0" standalone="no"?>
<!DOCTYPE svg PUBLIC "-//W3C//DTD SVG 20010904//EN"
 "http://www.w3.org/TR/2001/REC-SVG-20010904/DTD/svg10.dtd">
<svg version="1.0" xmlns="http://www.w3.org/2000/svg"
 width="114.000000pt" height="114.000000pt" viewBox="0 0 114.000000 114.000000"
 preserveAspectRatio="xMidYMid meet">

<g transform="translate(0.000000,114.000000) scale(0.100000,-0.100000)"
fill="#000000" stroke="none">
<path d="M232 767 l-192 -192 0 -82 0 -83 197 -2 198 -3 3 -97 3 -98 94 0 95
0 0 180 0 180 -192 0 -193 0 195 195 195 195 -105 0 -105 0 -193 -193z"/>
<path d="M710 865 c0 -52 3 -95 7 -95 4 0 49 42 100 92 l93 93 0 -95 0 -94
-100 -102 -101 -102 3 -93 3 -94 198 -3 197 -2 0 97 0 98 -93 -93 c-51 -51
-96 -89 -100 -86 -4 4 -7 46 -7 93 l0 86 100 96 100 96 0 101 0 102 -200 0
-200 0 0 -95z"/>
</g>
</svg>
